<svg xmlns="http://www.w3.org/2000/svg" viewBox="0 0 210.72 128.45"><defs><style>.cls-1{fill:#95c11f;}.cls-2{fill:#323233;}.cls-3{fill:#3aaa35;}.cls-4{fill:none;}</style></defs><title>Asset 1</title><g id="Layer_2" data-name="Layer 2"><g id="Layer_1-2" data-name="Layer 1"><polygon class="cls-1" points="210.72 84.92 167.19 128.45 210.72 128.45 210.72 84.92"/><polygon class="cls-1" points="210.72 59.29 210.72 10.28 92.37 128.45 142.21 128.45 210.72 59.29"/><polygon class="cls-2" points="99.62 87.75 121.27 66.48 54.79 0 10.98 0 99.62 87.75"/><polygon class="cls-2" points="132.85 55.1 155.01 33.34 121.67 0 77.75 0 132.85 55.1"/><polygon class="cls-2" points="166.59 21.95 188.75 0.19 188.56 0 144.64 0 166.59 21.95"/><polygon class="cls-3" points="89.94 97.27 67.19 74.53 13.26 128.45 58.2 128.45 89.94 97.27"/><polygon class="cls-3" points="0 118.75 55.7 63.05 46.44 53.78 33.66 41.17 0 74.83 0 118.75"/><polygon class="cls-4" points="0 51.87 22.1 29.76 0 7.95 0 51.87"/></g></g></svg>